<svg xmlns="http://www.w3.org/2000/svg">
    <symbol id="gear" viewBox="0 0 20 20">
        <path fill-rule="evenodd" d="
            M 10 3.25 A 6.75 6.75 0 0 1 10 16.75 A 6.75 6.75 0 0 1 10 3.25 Z
            M 10 7.25 A 2.75 2.75 0 0 1 10 12.75 A 2.75 2.75 0 0 1 10 7.25 Z
        " />
        <g transform="rotate(0 10 10)">
            <rect x="8" y="0" width="4" height="5" rx="1.25" ry="1.25" />
            <rect x="15" y="8" width="5" height="4" rx="1.25" ry="1.25" />
            <rect x="8" y="15" width="4" height="5" rx="1.25" ry="1.25" />
            <rect x="0" y="8" width="5" height="4" rx="1.25" ry="1.25" />
        </g>
        <g transform="rotate(45 10 10)">
            <rect x="8" y="0" width="4" height="5" rx="1.25" ry="1.25" />
            <rect x="15" y="8" width="5" height="4" rx="1.25" ry="1.25" />
            <rect x="8" y="15" width="4" height="5" rx="1.25" ry="1.25" />
            <rect x="0" y="8" width="5" height="4" rx="1.25" ry="1.25" />
        </g>
    </symbol>
</svg>
