<svg xmlns="http://www.w3.org/2000/svg" viewBox="0 0 260 260" width="260" height="260">
    <!-- Generated by Color Ramp Formulator v1.2.0 -->
    <rect class="frame" width="260" height="260" stroke="gray" stroke-width="2" fill="white" shape-rendering="crispEdges"/>
    <g class="colors" shape-rendering="geometricPrecision">
        <rect class="color" x="3" y="3" width="14" height="14" fill="#000000"><title>[0] : rgb(0, 0, 0) or #000000</title></rect>
        <rect class="color" x="19" y="3" width="14" height="14" fill="#010103"><title>[1] : rgb(1, 1, 3) or #010103</title></rect>
        <rect class="color" x="35" y="3" width="14" height="14" fill="#020106"><title>[2] : rgb(2, 1, 6) or #020106</title></rect>
        <rect class="color" x="51" y="3" width="14" height="14" fill="#030209"><title>[3] : rgb(3, 2, 9) or #030209</title></rect>
        <rect class="color" x="67" y="3" width="14" height="14" fill="#04030C"><title>[4] : rgb(4, 3, 12) or #04030C</title></rect>
        <rect class="color" x="83" y="3" width="14" height="14" fill="#05030F"><title>[5] : rgb(5, 3, 15) or #05030F</title></rect>
        <rect class="color" x="99" y="3" width="14" height="14" fill="#060412"><title>[6] : rgb(6, 4, 18) or #060412</title></rect>
        <rect class="color" x="115" y="3" width="14" height="14" fill="#070414"><title>[7] : rgb(7, 4, 20) or #070414</title></rect>
        <rect class="color" x="131" y="3" width="14" height="14" fill="#080517"><title>[8] : rgb(8, 5, 23) or #080517</title></rect>
        <rect class="color" x="147" y="3" width="14" height="14" fill="#0A061A"><title>[9] : rgb(10, 6, 26) or #0A061A</title></rect>
        <rect class="color" x="163" y="3" width="14" height="14" fill="#0B061D"><title>[10] : rgb(11, 6, 29) or #0B061D</title></rect>
        <rect class="color" x="179" y="3" width="14" height="14" fill="#0C0720"><title>[11] : rgb(12, 7, 32) or #0C0720</title></rect>
        <rect class="color" x="195" y="3" width="14" height="14" fill="#0E0722"><title>[12] : rgb(14, 7, 34) or #0E0722</title></rect>
        <rect class="color" x="211" y="3" width="14" height="14" fill="#0F0725"><title>[13] : rgb(15, 7, 37) or #0F0725</title></rect>
        <rect class="color" x="227" y="3" width="14" height="14" fill="#110828"><title>[14] : rgb(17, 8, 40) or #110828</title></rect>
        <rect class="color" x="243" y="3" width="14" height="14" fill="#12082A"><title>[15] : rgb(18, 8, 42) or #12082A</title></rect>
        <rect class="color" x="3" y="19" width="14" height="14" fill="#14092D"><title>[16] : rgb(20, 9, 45) or #14092D</title></rect>
        <rect class="color" x="19" y="19" width="14" height="14" fill="#15092F"><title>[17] : rgb(21, 9, 47) or #15092F</title></rect>
        <rect class="color" x="35" y="19" width="14" height="14" fill="#170A32"><title>[18] : rgb(23, 10, 50) or #170A32</title></rect>
        <rect class="color" x="51" y="19" width="14" height="14" fill="#180A35"><title>[19] : rgb(24, 10, 53) or #180A35</title></rect>
        <rect class="color" x="67" y="19" width="14" height="14" fill="#1A0A37"><title>[20] : rgb(26, 10, 55) or #1A0A37</title></rect>
        <rect class="color" x="83" y="19" width="14" height="14" fill="#1C0B39"><title>[21] : rgb(28, 11, 57) or #1C0B39</title></rect>
        <rect class="color" x="99" y="19" width="14" height="14" fill="#1E0B3C"><title>[22] : rgb(30, 11, 60) or #1E0B3C</title></rect>
        <rect class="color" x="115" y="19" width="14" height="14" fill="#1F0B3E"><title>[23] : rgb(31, 11, 62) or #1F0B3E</title></rect>
        <rect class="color" x="131" y="19" width="14" height="14" fill="#210C41"><title>[24] : rgb(33, 12, 65) or #210C41</title></rect>
        <rect class="color" x="147" y="19" width="14" height="14" fill="#230C43"><title>[25] : rgb(35, 12, 67) or #230C43</title></rect>
        <rect class="color" x="163" y="19" width="14" height="14" fill="#250C45"><title>[26] : rgb(37, 12, 69) or #250C45</title></rect>
        <rect class="color" x="179" y="19" width="14" height="14" fill="#270D47"><title>[27] : rgb(39, 13, 71) or #270D47</title></rect>
        <rect class="color" x="195" y="19" width="14" height="14" fill="#290D4A"><title>[28] : rgb(41, 13, 74) or #290D4A</title></rect>
        <rect class="color" x="211" y="19" width="14" height="14" fill="#2B0D4C"><title>[29] : rgb(43, 13, 76) or #2B0D4C</title></rect>
        <rect class="color" x="227" y="19" width="14" height="14" fill="#2D0D4E"><title>[30] : rgb(45, 13, 78) or #2D0D4E</title></rect>
        <rect class="color" x="243" y="19" width="14" height="14" fill="#2F0E50"><title>[31] : rgb(47, 14, 80) or #2F0E50</title></rect>
        <rect class="color" x="3" y="35" width="14" height="14" fill="#310E52"><title>[32] : rgb(49, 14, 82) or #310E52</title></rect>
        <rect class="color" x="19" y="35" width="14" height="14" fill="#330E54"><title>[33] : rgb(51, 14, 84) or #330E54</title></rect>
        <rect class="color" x="35" y="35" width="14" height="14" fill="#350E56"><title>[34] : rgb(53, 14, 86) or #350E56</title></rect>
        <rect class="color" x="51" y="35" width="14" height="14" fill="#380F58"><title>[35] : rgb(56, 15, 88) or #380F58</title></rect>
        <rect class="color" x="67" y="35" width="14" height="14" fill="#3A0F5A"><title>[36] : rgb(58, 15, 90) or #3A0F5A</title></rect>
        <rect class="color" x="83" y="35" width="14" height="14" fill="#3C0F5C"><title>[37] : rgb(60, 15, 92) or #3C0F5C</title></rect>
        <rect class="color" x="99" y="35" width="14" height="14" fill="#3E0F5E"><title>[38] : rgb(62, 15, 94) or #3E0F5E</title></rect>
        <rect class="color" x="115" y="35" width="14" height="14" fill="#40105F"><title>[39] : rgb(64, 16, 95) or #40105F</title></rect>
        <rect class="color" x="131" y="35" width="14" height="14" fill="#431061"><title>[40] : rgb(67, 16, 97) or #431061</title></rect>
        <rect class="color" x="147" y="35" width="14" height="14" fill="#451063"><title>[41] : rgb(69, 16, 99) or #451063</title></rect>
        <rect class="color" x="163" y="35" width="14" height="14" fill="#471064"><title>[42] : rgb(71, 16, 100) or #471064</title></rect>
        <rect class="color" x="179" y="35" width="14" height="14" fill="#4A1066"><title>[43] : rgb(74, 16, 102) or #4A1066</title></rect>
        <rect class="color" x="195" y="35" width="14" height="14" fill="#4C1167"><title>[44] : rgb(76, 17, 103) or #4C1167</title></rect>
        <rect class="color" x="211" y="35" width="14" height="14" fill="#4E1169"><title>[45] : rgb(78, 17, 105) or #4E1169</title></rect>
        <rect class="color" x="227" y="35" width="14" height="14" fill="#51116A"><title>[46] : rgb(81, 17, 106) or #51116A</title></rect>
        <rect class="color" x="243" y="35" width="14" height="14" fill="#53116C"><title>[47] : rgb(83, 17, 108) or #53116C</title></rect>
        <rect class="color" x="3" y="51" width="14" height="14" fill="#55126D"><title>[48] : rgb(85, 18, 109) or #55126D</title></rect>
        <rect class="color" x="19" y="51" width="14" height="14" fill="#58126F"><title>[49] : rgb(88, 18, 111) or #58126F</title></rect>
        <rect class="color" x="35" y="51" width="14" height="14" fill="#5A1270"><title>[50] : rgb(90, 18, 112) or #5A1270</title></rect>
        <rect class="color" x="51" y="51" width="14" height="14" fill="#5D1271"><title>[51] : rgb(93, 18, 113) or #5D1271</title></rect>
        <rect class="color" x="67" y="51" width="14" height="14" fill="#5F1272"><title>[52] : rgb(95, 18, 114) or #5F1272</title></rect>
        <rect class="color" x="83" y="51" width="14" height="14" fill="#621373"><title>[53] : rgb(98, 19, 115) or #621373</title></rect>
        <rect class="color" x="99" y="51" width="14" height="14" fill="#641374"><title>[54] : rgb(100, 19, 116) or #641374</title></rect>
        <rect class="color" x="115" y="51" width="14" height="14" fill="#661376"><title>[55] : rgb(102, 19, 118) or #661376</title></rect>
        <rect class="color" x="131" y="51" width="14" height="14" fill="#691377"><title>[56] : rgb(105, 19, 119) or #691377</title></rect>
        <rect class="color" x="147" y="51" width="14" height="14" fill="#6B1478"><title>[57] : rgb(107, 20, 120) or #6B1478</title></rect>
        <rect class="color" x="163" y="51" width="14" height="14" fill="#6E1478"><title>[58] : rgb(110, 20, 120) or #6E1478</title></rect>
        <rect class="color" x="179" y="51" width="14" height="14" fill="#701479"><title>[59] : rgb(112, 20, 121) or #701479</title></rect>
        <rect class="color" x="195" y="51" width="14" height="14" fill="#73157A"><title>[60] : rgb(115, 21, 122) or #73157A</title></rect>
        <rect class="color" x="211" y="51" width="14" height="14" fill="#75157B"><title>[61] : rgb(117, 21, 123) or #75157B</title></rect>
        <rect class="color" x="227" y="51" width="14" height="14" fill="#78157C"><title>[62] : rgb(120, 21, 124) or #78157C</title></rect>
        <rect class="color" x="243" y="51" width="14" height="14" fill="#7A157D"><title>[63] : rgb(122, 21, 125) or #7A157D</title></rect>
        <rect class="color" x="3" y="67" width="14" height="14" fill="#7D167D"><title>[64] : rgb(125, 22, 125) or #7D167D</title></rect>
        <rect class="color" x="19" y="67" width="14" height="14" fill="#7F167E"><title>[65] : rgb(127, 22, 126) or #7F167E</title></rect>
        <rect class="color" x="35" y="67" width="14" height="14" fill="#81167E"><title>[66] : rgb(129, 22, 126) or #81167E</title></rect>
        <rect class="color" x="51" y="67" width="14" height="14" fill="#84177F"><title>[67] : rgb(132, 23, 127) or #84177F</title></rect>
        <rect class="color" x="67" y="67" width="14" height="14" fill="#86177F"><title>[68] : rgb(134, 23, 127) or #86177F</title></rect>
        <rect class="color" x="83" y="67" width="14" height="14" fill="#891880"><title>[69] : rgb(137, 24, 128) or #891880</title></rect>
        <rect class="color" x="99" y="67" width="14" height="14" fill="#8B1880"><title>[70] : rgb(139, 24, 128) or #8B1880</title></rect>
        <rect class="color" x="115" y="67" width="14" height="14" fill="#8E1881"><title>[71] : rgb(142, 24, 129) or #8E1881</title></rect>
        <rect class="color" x="131" y="67" width="14" height="14" fill="#901981"><title>[72] : rgb(144, 25, 129) or #901981</title></rect>
        <rect class="color" x="147" y="67" width="14" height="14" fill="#921981"><title>[73] : rgb(146, 25, 129) or #921981</title></rect>
        <rect class="color" x="163" y="67" width="14" height="14" fill="#951A82"><title>[74] : rgb(149, 26, 130) or #951A82</title></rect>
        <rect class="color" x="179" y="67" width="14" height="14" fill="#971A82"><title>[75] : rgb(151, 26, 130) or #971A82</title></rect>
        <rect class="color" x="195" y="67" width="14" height="14" fill="#991B82"><title>[76] : rgb(153, 27, 130) or #991B82</title></rect>
        <rect class="color" x="211" y="67" width="14" height="14" fill="#9C1B82"><title>[77] : rgb(156, 27, 130) or #9C1B82</title></rect>
        <rect class="color" x="227" y="67" width="14" height="14" fill="#9E1B82"><title>[78] : rgb(158, 27, 130) or #9E1B82</title></rect>
        <rect class="color" x="243" y="67" width="14" height="14" fill="#A01C83"><title>[79] : rgb(160, 28, 131) or #A01C83</title></rect>
        <rect class="color" x="3" y="83" width="14" height="14" fill="#A31D83"><title>[80] : rgb(163, 29, 131) or #A31D83</title></rect>
        <rect class="color" x="19" y="83" width="14" height="14" fill="#A51D83"><title>[81] : rgb(165, 29, 131) or #A51D83</title></rect>
        <rect class="color" x="35" y="83" width="14" height="14" fill="#A71E83"><title>[82] : rgb(167, 30, 131) or #A71E83</title></rect>
        <rect class="color" x="51" y="83" width="14" height="14" fill="#A91E83"><title>[83] : rgb(169, 30, 131) or #A91E83</title></rect>
        <rect class="color" x="67" y="83" width="14" height="14" fill="#AC1F83"><title>[84] : rgb(172, 31, 131) or #AC1F83</title></rect>
        <rect class="color" x="83" y="83" width="14" height="14" fill="#AE1F82"><title>[85] : rgb(174, 31, 130) or #AE1F82</title></rect>
        <rect class="color" x="99" y="83" width="14" height="14" fill="#B02082"><title>[86] : rgb(176, 32, 130) or #B02082</title></rect>
        <rect class="color" x="115" y="83" width="14" height="14" fill="#B22182"><title>[87] : rgb(178, 33, 130) or #B22182</title></rect>
        <rect class="color" x="131" y="83" width="14" height="14" fill="#B42182"><title>[88] : rgb(180, 33, 130) or #B42182</title></rect>
        <rect class="color" x="147" y="83" width="14" height="14" fill="#B62282"><title>[89] : rgb(182, 34, 130) or #B62282</title></rect>
        <rect class="color" x="163" y="83" width="14" height="14" fill="#B92382"><title>[90] : rgb(185, 35, 130) or #B92382</title></rect>
        <rect class="color" x="179" y="83" width="14" height="14" fill="#BB2381"><title>[91] : rgb(187, 35, 129) or #BB2381</title></rect>
        <rect class="color" x="195" y="83" width="14" height="14" fill="#BD2481"><title>[92] : rgb(189, 36, 129) or #BD2481</title></rect>
        <rect class="color" x="211" y="83" width="14" height="14" fill="#BF2581"><title>[93] : rgb(191, 37, 129) or #BF2581</title></rect>
        <rect class="color" x="227" y="83" width="14" height="14" fill="#C12580"><title>[94] : rgb(193, 37, 128) or #C12580</title></rect>
        <rect class="color" x="243" y="83" width="14" height="14" fill="#C32680"><title>[95] : rgb(195, 38, 128) or #C32680</title></rect>
        <rect class="color" x="3" y="99" width="14" height="14" fill="#C4277F"><title>[96] : rgb(196, 39, 127) or #C4277F</title></rect>
        <rect class="color" x="19" y="99" width="14" height="14" fill="#C6287F"><title>[97] : rgb(198, 40, 127) or #C6287F</title></rect>
        <rect class="color" x="35" y="99" width="14" height="14" fill="#C8297F"><title>[98] : rgb(200, 41, 127) or #C8297F</title></rect>
        <rect class="color" x="51" y="99" width="14" height="14" fill="#CA2A7E"><title>[99] : rgb(202, 42, 126) or #CA2A7E</title></rect>
        <rect class="color" x="67" y="99" width="14" height="14" fill="#CC2A7E"><title>[100] : rgb(204, 42, 126) or #CC2A7E</title></rect>
        <rect class="color" x="83" y="99" width="14" height="14" fill="#CE2B7D"><title>[101] : rgb(206, 43, 125) or #CE2B7D</title></rect>
        <rect class="color" x="99" y="99" width="14" height="14" fill="#CF2C7D"><title>[102] : rgb(207, 44, 125) or #CF2C7D</title></rect>
        <rect class="color" x="115" y="99" width="14" height="14" fill="#D12D7C"><title>[103] : rgb(209, 45, 124) or #D12D7C</title></rect>
        <rect class="color" x="131" y="99" width="14" height="14" fill="#D32E7C"><title>[104] : rgb(211, 46, 124) or #D32E7C</title></rect>
        <rect class="color" x="147" y="99" width="14" height="14" fill="#D52F7B"><title>[105] : rgb(213, 47, 123) or #D52F7B</title></rect>
        <rect class="color" x="163" y="99" width="14" height="14" fill="#D6307A"><title>[106] : rgb(214, 48, 122) or #D6307A</title></rect>
        <rect class="color" x="179" y="99" width="14" height="14" fill="#D8317A"><title>[107] : rgb(216, 49, 122) or #D8317A</title></rect>
        <rect class="color" x="195" y="99" width="14" height="14" fill="#D93279"><title>[108] : rgb(217, 50, 121) or #D93279</title></rect>
        <rect class="color" x="211" y="99" width="14" height="14" fill="#DB3379"><title>[109] : rgb(219, 51, 121) or #DB3379</title></rect>
        <rect class="color" x="227" y="99" width="14" height="14" fill="#DC3478"><title>[110] : rgb(220, 52, 120) or #DC3478</title></rect>
        <rect class="color" x="243" y="99" width="14" height="14" fill="#DE3577"><title>[111] : rgb(222, 53, 119) or #DE3577</title></rect>
        <rect class="color" x="3" y="115" width="14" height="14" fill="#DF3677"><title>[112] : rgb(223, 54, 119) or #DF3677</title></rect>
        <rect class="color" x="19" y="115" width="14" height="14" fill="#E13776"><title>[113] : rgb(225, 55, 118) or #E13776</title></rect>
        <rect class="color" x="35" y="115" width="14" height="14" fill="#E23875"><title>[114] : rgb(226, 56, 117) or #E23875</title></rect>
        <rect class="color" x="51" y="115" width="14" height="14" fill="#E33A75"><title>[115] : rgb(227, 58, 117) or #E33A75</title></rect>
        <rect class="color" x="67" y="115" width="14" height="14" fill="#E53B74"><title>[116] : rgb(229, 59, 116) or #E53B74</title></rect>
        <rect class="color" x="83" y="115" width="14" height="14" fill="#E63C73"><title>[117] : rgb(230, 60, 115) or #E63C73</title></rect>
        <rect class="color" x="99" y="115" width="14" height="14" fill="#E73D72"><title>[118] : rgb(231, 61, 114) or #E73D72</title></rect>
        <rect class="color" x="115" y="115" width="14" height="14" fill="#E83E72"><title>[119] : rgb(232, 62, 114) or #E83E72</title></rect>
        <rect class="color" x="131" y="115" width="14" height="14" fill="#EA4071"><title>[120] : rgb(234, 64, 113) or #EA4071</title></rect>
        <rect class="color" x="147" y="115" width="14" height="14" fill="#EB4170"><title>[121] : rgb(235, 65, 112) or #EB4170</title></rect>
        <rect class="color" x="163" y="115" width="14" height="14" fill="#EC4270"><title>[122] : rgb(236, 66, 112) or #EC4270</title></rect>
        <rect class="color" x="179" y="115" width="14" height="14" fill="#ED436F"><title>[123] : rgb(237, 67, 111) or #ED436F</title></rect>
        <rect class="color" x="195" y="115" width="14" height="14" fill="#EE456E"><title>[124] : rgb(238, 69, 110) or #EE456E</title></rect>
        <rect class="color" x="211" y="115" width="14" height="14" fill="#EF466E"><title>[125] : rgb(239, 70, 110) or #EF466E</title></rect>
        <rect class="color" x="227" y="115" width="14" height="14" fill="#F0476D"><title>[126] : rgb(240, 71, 109) or #F0476D</title></rect>
        <rect class="color" x="243" y="115" width="14" height="14" fill="#F1496C"><title>[127] : rgb(241, 73, 108) or #F1496C</title></rect>
        <rect class="color" x="3" y="131" width="14" height="14" fill="#F24A6B"><title>[128] : rgb(242, 74, 107) or #F24A6B</title></rect>
        <rect class="color" x="19" y="131" width="14" height="14" fill="#F34B6B"><title>[129] : rgb(243, 75, 107) or #F34B6B</title></rect>
        <rect class="color" x="35" y="131" width="14" height="14" fill="#F34D6A"><title>[130] : rgb(243, 77, 106) or #F34D6A</title></rect>
        <rect class="color" x="51" y="131" width="14" height="14" fill="#F44E69"><title>[131] : rgb(244, 78, 105) or #F44E69</title></rect>
        <rect class="color" x="67" y="131" width="14" height="14" fill="#F55069"><title>[132] : rgb(245, 80, 105) or #F55069</title></rect>
        <rect class="color" x="83" y="131" width="14" height="14" fill="#F65168"><title>[133] : rgb(246, 81, 104) or #F65168</title></rect>
        <rect class="color" x="99" y="131" width="14" height="14" fill="#F65368"><title>[134] : rgb(246, 83, 104) or #F65368</title></rect>
        <rect class="color" x="115" y="131" width="14" height="14" fill="#F75467"><title>[135] : rgb(247, 84, 103) or #F75467</title></rect>
        <rect class="color" x="131" y="131" width="14" height="14" fill="#F85666"><title>[136] : rgb(248, 86, 102) or #F85666</title></rect>
        <rect class="color" x="147" y="131" width="14" height="14" fill="#F85766"><title>[137] : rgb(248, 87, 102) or #F85766</title></rect>
        <rect class="color" x="163" y="131" width="14" height="14" fill="#F95965"><title>[138] : rgb(249, 89, 101) or #F95965</title></rect>
        <rect class="color" x="179" y="131" width="14" height="14" fill="#F95A65"><title>[139] : rgb(249, 90, 101) or #F95A65</title></rect>
        <rect class="color" x="195" y="131" width="14" height="14" fill="#FA5C64"><title>[140] : rgb(250, 92, 100) or #FA5C64</title></rect>
        <rect class="color" x="211" y="131" width="14" height="14" fill="#FA5D64"><title>[141] : rgb(250, 93, 100) or #FA5D64</title></rect>
        <rect class="color" x="227" y="131" width="14" height="14" fill="#FA5F63"><title>[142] : rgb(250, 95, 99) or #FA5F63</title></rect>
        <rect class="color" x="243" y="131" width="14" height="14" fill="#FB6063"><title>[143] : rgb(251, 96, 99) or #FB6063</title></rect>
        <rect class="color" x="3" y="147" width="14" height="14" fill="#FB6262"><title>[144] : rgb(251, 98, 98) or #FB6262</title></rect>
        <rect class="color" x="19" y="147" width="14" height="14" fill="#FC6462"><title>[145] : rgb(252, 100, 98) or #FC6462</title></rect>
        <rect class="color" x="35" y="147" width="14" height="14" fill="#FC6561"><title>[146] : rgb(252, 101, 97) or #FC6561</title></rect>
        <rect class="color" x="51" y="147" width="14" height="14" fill="#FC6761"><title>[147] : rgb(252, 103, 97) or #FC6761</title></rect>
        <rect class="color" x="67" y="147" width="14" height="14" fill="#FC6960"><title>[148] : rgb(252, 105, 96) or #FC6960</title></rect>
        <rect class="color" x="83" y="147" width="14" height="14" fill="#FC6A60"><title>[149] : rgb(252, 106, 96) or #FC6A60</title></rect>
        <rect class="color" x="99" y="147" width="14" height="14" fill="#FD6C60"><title>[150] : rgb(253, 108, 96) or #FD6C60</title></rect>
        <rect class="color" x="115" y="147" width="14" height="14" fill="#FD6E5F"><title>[151] : rgb(253, 110, 95) or #FD6E5F</title></rect>
        <rect class="color" x="131" y="147" width="14" height="14" fill="#FD6F5F"><title>[152] : rgb(253, 111, 95) or #FD6F5F</title></rect>
        <rect class="color" x="147" y="147" width="14" height="14" fill="#FD715F"><title>[153] : rgb(253, 113, 95) or #FD715F</title></rect>
        <rect class="color" x="163" y="147" width="14" height="14" fill="#FD735F"><title>[154] : rgb(253, 115, 95) or #FD735F</title></rect>
        <rect class="color" x="179" y="147" width="14" height="14" fill="#FD745E"><title>[155] : rgb(253, 116, 94) or #FD745E</title></rect>
        <rect class="color" x="195" y="147" width="14" height="14" fill="#FD765E"><title>[156] : rgb(253, 118, 94) or #FD765E</title></rect>
        <rect class="color" x="211" y="147" width="14" height="14" fill="#FD785E"><title>[157] : rgb(253, 120, 94) or #FD785E</title></rect>
        <rect class="color" x="227" y="147" width="14" height="14" fill="#FD7A5E"><title>[158] : rgb(253, 122, 94) or #FD7A5E</title></rect>
        <rect class="color" x="243" y="147" width="14" height="14" fill="#FD7B5E"><title>[159] : rgb(253, 123, 94) or #FD7B5E</title></rect>
        <rect class="color" x="3" y="163" width="14" height="14" fill="#FD7D5E"><title>[160] : rgb(253, 125, 94) or #FD7D5E</title></rect>
        <rect class="color" x="19" y="163" width="14" height="14" fill="#FD7F5E"><title>[161] : rgb(253, 127, 94) or #FD7F5E</title></rect>
        <rect class="color" x="35" y="163" width="14" height="14" fill="#FD815E"><title>[162] : rgb(253, 129, 94) or #FD815E</title></rect>
        <rect class="color" x="51" y="163" width="14" height="14" fill="#FC825E"><title>[163] : rgb(252, 130, 94) or #FC825E</title></rect>
        <rect class="color" x="67" y="163" width="14" height="14" fill="#FC845E"><title>[164] : rgb(252, 132, 94) or #FC845E</title></rect>
        <rect class="color" x="83" y="163" width="14" height="14" fill="#FC865E"><title>[165] : rgb(252, 134, 94) or #FC865E</title></rect>
        <rect class="color" x="99" y="163" width="14" height="14" fill="#FC885E"><title>[166] : rgb(252, 136, 94) or #FC885E</title></rect>
        <rect class="color" x="115" y="163" width="14" height="14" fill="#FC8A5E"><title>[167] : rgb(252, 138, 94) or #FC8A5E</title></rect>
        <rect class="color" x="131" y="163" width="14" height="14" fill="#FB8B5F"><title>[168] : rgb(251, 139, 95) or #FB8B5F</title></rect>
        <rect class="color" x="147" y="163" width="14" height="14" fill="#FB8D5F"><title>[169] : rgb(251, 141, 95) or #FB8D5F</title></rect>
        <rect class="color" x="163" y="163" width="14" height="14" fill="#FB8F5F"><title>[170] : rgb(251, 143, 95) or #FB8F5F</title></rect>
        <rect class="color" x="179" y="163" width="14" height="14" fill="#FA9160"><title>[171] : rgb(250, 145, 96) or #FA9160</title></rect>
        <rect class="color" x="195" y="163" width="14" height="14" fill="#FA9260"><title>[172] : rgb(250, 146, 96) or #FA9260</title></rect>
        <rect class="color" x="211" y="163" width="14" height="14" fill="#FA9460"><title>[173] : rgb(250, 148, 96) or #FA9460</title></rect>
        <rect class="color" x="227" y="163" width="14" height="14" fill="#F99661"><title>[174] : rgb(249, 150, 97) or #F99661</title></rect>
        <rect class="color" x="243" y="163" width="14" height="14" fill="#F99861"><title>[175] : rgb(249, 152, 97) or #F99861</title></rect>
        <rect class="color" x="3" y="179" width="14" height="14" fill="#F99A62"><title>[176] : rgb(249, 154, 98) or #F99A62</title></rect>
        <rect class="color" x="19" y="179" width="14" height="14" fill="#F89B62"><title>[177] : rgb(248, 155, 98) or #F89B62</title></rect>
        <rect class="color" x="35" y="179" width="14" height="14" fill="#F89D63"><title>[178] : rgb(248, 157, 99) or #F89D63</title></rect>
        <rect class="color" x="51" y="179" width="14" height="14" fill="#F79F64"><title>[179] : rgb(247, 159, 100) or #F79F64</title></rect>
        <rect class="color" x="67" y="179" width="14" height="14" fill="#F7A164"><title>[180] : rgb(247, 161, 100) or #F7A164</title></rect>
        <rect class="color" x="83" y="179" width="14" height="14" fill="#F7A365"><title>[181] : rgb(247, 163, 101) or #F7A365</title></rect>
        <rect class="color" x="99" y="179" width="14" height="14" fill="#F6A466"><title>[182] : rgb(246, 164, 102) or #F6A466</title></rect>
        <rect class="color" x="115" y="179" width="14" height="14" fill="#F6A667"><title>[183] : rgb(246, 166, 103) or #F6A667</title></rect>
        <rect class="color" x="131" y="179" width="14" height="14" fill="#F5A867"><title>[184] : rgb(245, 168, 103) or #F5A867</title></rect>
        <rect class="color" x="147" y="179" width="14" height="14" fill="#F5AA68"><title>[185] : rgb(245, 170, 104) or #F5AA68</title></rect>
        <rect class="color" x="163" y="179" width="14" height="14" fill="#F4AB69"><title>[186] : rgb(244, 171, 105) or #F4AB69</title></rect>
        <rect class="color" x="179" y="179" width="14" height="14" fill="#F4AD6A"><title>[187] : rgb(244, 173, 106) or #F4AD6A</title></rect>
        <rect class="color" x="195" y="179" width="14" height="14" fill="#F3AF6B"><title>[188] : rgb(243, 175, 107) or #F3AF6B</title></rect>
        <rect class="color" x="211" y="179" width="14" height="14" fill="#F3B16C"><title>[189] : rgb(243, 177, 108) or #F3B16C</title></rect>
        <rect class="color" x="227" y="179" width="14" height="14" fill="#F2B26D"><title>[190] : rgb(242, 178, 109) or #F2B26D</title></rect>
        <rect class="color" x="243" y="179" width="14" height="14" fill="#F2B46F"><title>[191] : rgb(242, 180, 111) or #F2B46F</title></rect>
        <rect class="color" x="3" y="195" width="14" height="14" fill="#F1B670"><title>[192] : rgb(241, 182, 112) or #F1B670</title></rect>
        <rect class="color" x="19" y="195" width="14" height="14" fill="#F1B871"><title>[193] : rgb(241, 184, 113) or #F1B871</title></rect>
        <rect class="color" x="35" y="195" width="14" height="14" fill="#F1B972"><title>[194] : rgb(241, 185, 114) or #F1B972</title></rect>
        <rect class="color" x="51" y="195" width="14" height="14" fill="#F0BB74"><title>[195] : rgb(240, 187, 116) or #F0BB74</title></rect>
        <rect class="color" x="67" y="195" width="14" height="14" fill="#F0BD75"><title>[196] : rgb(240, 189, 117) or #F0BD75</title></rect>
        <rect class="color" x="83" y="195" width="14" height="14" fill="#EFBE76"><title>[197] : rgb(239, 190, 118) or #EFBE76</title></rect>
        <rect class="color" x="99" y="195" width="14" height="14" fill="#EFC078"><title>[198] : rgb(239, 192, 120) or #EFC078</title></rect>
        <rect class="color" x="115" y="195" width="14" height="14" fill="#EEC179"><title>[199] : rgb(238, 193, 121) or #EEC179</title></rect>
        <rect class="color" x="131" y="195" width="14" height="14" fill="#EEC37B"><title>[200] : rgb(238, 195, 123) or #EEC37B</title></rect>
        <rect class="color" x="147" y="195" width="14" height="14" fill="#EEC57C"><title>[201] : rgb(238, 197, 124) or #EEC57C</title></rect>
        <rect class="color" x="163" y="195" width="14" height="14" fill="#EDC67E"><title>[202] : rgb(237, 198, 126) or #EDC67E</title></rect>
        <rect class="color" x="179" y="195" width="14" height="14" fill="#EDC87F"><title>[203] : rgb(237, 200, 127) or #EDC87F</title></rect>
        <rect class="color" x="195" y="195" width="14" height="14" fill="#ECC981"><title>[204] : rgb(236, 201, 129) or #ECC981</title></rect>
        <rect class="color" x="211" y="195" width="14" height="14" fill="#ECCB83"><title>[205] : rgb(236, 203, 131) or #ECCB83</title></rect>
        <rect class="color" x="227" y="195" width="14" height="14" fill="#ECCD85"><title>[206] : rgb(236, 205, 133) or #ECCD85</title></rect>
        <rect class="color" x="243" y="195" width="14" height="14" fill="#EBCE86"><title>[207] : rgb(235, 206, 134) or #EBCE86</title></rect>
        <rect class="color" x="3" y="211" width="14" height="14" fill="#EBD088"><title>[208] : rgb(235, 208, 136) or #EBD088</title></rect>
        <rect class="color" x="19" y="211" width="14" height="14" fill="#EBD18A"><title>[209] : rgb(235, 209, 138) or #EBD18A</title></rect>
        <rect class="color" x="35" y="211" width="14" height="14" fill="#EBD38C"><title>[210] : rgb(235, 211, 140) or #EBD38C</title></rect>
        <rect class="color" x="51" y="211" width="14" height="14" fill="#EAD48E"><title>[211] : rgb(234, 212, 142) or #EAD48E</title></rect>
        <rect class="color" x="67" y="211" width="14" height="14" fill="#EAD590"><title>[212] : rgb(234, 213, 144) or #EAD590</title></rect>
        <rect class="color" x="83" y="211" width="14" height="14" fill="#EAD792"><title>[213] : rgb(234, 215, 146) or #EAD792</title></rect>
        <rect class="color" x="99" y="211" width="14" height="14" fill="#EAD894"><title>[214] : rgb(234, 216, 148) or #EAD894</title></rect>
        <rect class="color" x="115" y="211" width="14" height="14" fill="#E9DA96"><title>[215] : rgb(233, 218, 150) or #E9DA96</title></rect>
        <rect class="color" x="131" y="211" width="14" height="14" fill="#E9DB98"><title>[216] : rgb(233, 219, 152) or #E9DB98</title></rect>
        <rect class="color" x="147" y="211" width="14" height="14" fill="#E9DC9A"><title>[217] : rgb(233, 220, 154) or #E9DC9A</title></rect>
        <rect class="color" x="163" y="211" width="14" height="14" fill="#E9DE9D"><title>[218] : rgb(233, 222, 157) or #E9DE9D</title></rect>
        <rect class="color" x="179" y="211" width="14" height="14" fill="#E9DF9F"><title>[219] : rgb(233, 223, 159) or #E9DF9F</title></rect>
        <rect class="color" x="195" y="211" width="14" height="14" fill="#E9E0A1"><title>[220] : rgb(233, 224, 161) or #E9E0A1</title></rect>
        <rect class="color" x="211" y="211" width="14" height="14" fill="#E9E2A3"><title>[221] : rgb(233, 226, 163) or #E9E2A3</title></rect>
        <rect class="color" x="227" y="211" width="14" height="14" fill="#E9E3A6"><title>[222] : rgb(233, 227, 166) or #E9E3A6</title></rect>
        <rect class="color" x="243" y="211" width="14" height="14" fill="#E9E4A8"><title>[223] : rgb(233, 228, 168) or #E9E4A8</title></rect>
        <rect class="color" x="3" y="227" width="14" height="14" fill="#E9E5AB"><title>[224] : rgb(233, 229, 171) or #E9E5AB</title></rect>
        <rect class="color" x="19" y="227" width="14" height="14" fill="#E9E6AD"><title>[225] : rgb(233, 230, 173) or #E9E6AD</title></rect>
        <rect class="color" x="35" y="227" width="14" height="14" fill="#E9E8AF"><title>[226] : rgb(233, 232, 175) or #E9E8AF</title></rect>
        <rect class="color" x="51" y="227" width="14" height="14" fill="#EAE9B2"><title>[227] : rgb(234, 233, 178) or #EAE9B2</title></rect>
        <rect class="color" x="67" y="227" width="14" height="14" fill="#EAEAB4"><title>[228] : rgb(234, 234, 180) or #EAEAB4</title></rect>
        <rect class="color" x="83" y="227" width="14" height="14" fill="#EAEBB7"><title>[229] : rgb(234, 235, 183) or #EAEBB7</title></rect>
        <rect class="color" x="99" y="227" width="14" height="14" fill="#EAECBA"><title>[230] : rgb(234, 236, 186) or #EAECBA</title></rect>
        <rect class="color" x="115" y="227" width="14" height="14" fill="#EBEDBC"><title>[231] : rgb(235, 237, 188) or #EBEDBC</title></rect>
        <rect class="color" x="131" y="227" width="14" height="14" fill="#EBEEBF"><title>[232] : rgb(235, 238, 191) or #EBEEBF</title></rect>
        <rect class="color" x="147" y="227" width="14" height="14" fill="#EBEFC1"><title>[233] : rgb(235, 239, 193) or #EBEFC1</title></rect>
        <rect class="color" x="163" y="227" width="14" height="14" fill="#ECF0C4"><title>[234] : rgb(236, 240, 196) or #ECF0C4</title></rect>
        <rect class="color" x="179" y="227" width="14" height="14" fill="#ECF1C7"><title>[235] : rgb(236, 241, 199) or #ECF1C7</title></rect>
        <rect class="color" x="195" y="227" width="14" height="14" fill="#EDF2C9"><title>[236] : rgb(237, 242, 201) or #EDF2C9</title></rect>
        <rect class="color" x="211" y="227" width="14" height="14" fill="#EDF3CC"><title>[237] : rgb(237, 243, 204) or #EDF3CC</title></rect>
        <rect class="color" x="227" y="227" width="14" height="14" fill="#EEF4CF"><title>[238] : rgb(238, 244, 207) or #EEF4CF</title></rect>
        <rect class="color" x="243" y="227" width="14" height="14" fill="#EFF5D2"><title>[239] : rgb(239, 245, 210) or #EFF5D2</title></rect>
        <rect class="color" x="3" y="243" width="14" height="14" fill="#EFF6D4"><title>[240] : rgb(239, 246, 212) or #EFF6D4</title></rect>
        <rect class="color" x="19" y="243" width="14" height="14" fill="#F0F6D7"><title>[241] : rgb(240, 246, 215) or #F0F6D7</title></rect>
        <rect class="color" x="35" y="243" width="14" height="14" fill="#F1F7DA"><title>[242] : rgb(241, 247, 218) or #F1F7DA</title></rect>
        <rect class="color" x="51" y="243" width="14" height="14" fill="#F2F8DD"><title>[243] : rgb(242, 248, 221) or #F2F8DD</title></rect>
        <rect class="color" x="67" y="243" width="14" height="14" fill="#F2F9E0"><title>[244] : rgb(242, 249, 224) or #F2F9E0</title></rect>
        <rect class="color" x="83" y="243" width="14" height="14" fill="#F3F9E2"><title>[245] : rgb(243, 249, 226) or #F3F9E2</title></rect>
        <rect class="color" x="99" y="243" width="14" height="14" fill="#F4FAE5"><title>[246] : rgb(244, 250, 229) or #F4FAE5</title></rect>
        <rect class="color" x="115" y="243" width="14" height="14" fill="#F5FBE8"><title>[247] : rgb(245, 251, 232) or #F5FBE8</title></rect>
        <rect class="color" x="131" y="243" width="14" height="14" fill="#F6FBEB"><title>[248] : rgb(246, 251, 235) or #F6FBEB</title></rect>
        <rect class="color" x="147" y="243" width="14" height="14" fill="#F7FCEE"><title>[249] : rgb(247, 252, 238) or #F7FCEE</title></rect>
        <rect class="color" x="163" y="243" width="14" height="14" fill="#F9FCF1"><title>[250] : rgb(249, 252, 241) or #F9FCF1</title></rect>
        <rect class="color" x="179" y="243" width="14" height="14" fill="#FAFDF3"><title>[251] : rgb(250, 253, 243) or #FAFDF3</title></rect>
        <rect class="color" x="195" y="243" width="14" height="14" fill="#FBFEF6"><title>[252] : rgb(251, 254, 246) or #FBFEF6</title></rect>
        <rect class="color" x="211" y="243" width="14" height="14" fill="#FCFEF9"><title>[253] : rgb(252, 254, 249) or #FCFEF9</title></rect>
        <rect class="color" x="227" y="243" width="14" height="14" fill="#FEFFFC"><title>[254] : rgb(254, 255, 252) or #FEFFFC</title></rect>
        <rect class="color" x="243" y="243" width="14" height="14" fill="#FFFFFF"><title>[255] : rgb(255, 255, 255) or #FFFFFF</title></rect>
    </g>
</svg>