<svg version="1.0" xmlns="http://www.w3.org/2000/svg" viewBox="0 0 1024 1024" width="1024" height="1024">
<rect fill="none" width="1024" height="1024"/>
<g>
	<rect x="50" y="50" fill="#FFFFFF" width="924" height="924"/>
	<rect x="50" y="50" fill="none" stroke="#C0C0C0" stroke-width="48" width="924" height="924"/>
	<path fill="#999999" d="M974,50v924H50V50H974 M998,26h-24H50H26v24v924v24h24h924h24v-24V50V26L998,26z"/>
</g>
<g>
	<path fill="#FF0000" d="M293.416,341.719v96.68h-29.59V211.055h60.725c19.803,0,34.385,2.025,43.751,6.072
		c9.363,4.049,16.605,10.171,21.728,18.365c5.123,8.194,7.684,17.022,7.684,26.484c0,8.78-1.705,17.61-5.116,26.486
		c-3.41,8.878-8.111,16.805-14.104,23.779c-5.992,6.976-14.639,13.584-25.941,19.828l65.742,106.329h-35.239l-60.203-96.68H293.416z
		 M293.416,319.014h41.318c9.288-5.086,16.2-10.272,20.737-15.555c4.534-5.283,7.972-10.906,10.313-16.873
		c2.339-5.967,3.511-11.934,3.511-17.903c0-10.661-3.875-19.148-11.623-25.458c-7.75-6.308-21.81-9.464-42.181-9.464h-22.076
		V319.014z"/>
	<path fill="#00BF00" d="M581.375,438.252c-16.018,4.688-30.714,7.031-44.092,7.031c-18.947,0-35.815-4.688-50.61-14.062
		s-26.393-23.511-34.79-42.407c-8.4-18.896-12.598-40.258-12.598-64.087c0-23.534,4.102-44.678,12.305-63.428
		s19.775-32.959,34.717-42.627s31.348-14.502,49.219-14.502c13.477,0,28.711,3.154,45.703,9.459v26.953
		c-15.725-9.137-31.348-13.708-46.875-13.708c-11.719,0-22.438,4.008-32.153,12.021c-9.718,8.015-17.53,19.766-23.438,35.257
		c-5.91,15.491-8.862,32.421-8.862,50.793c0,24.628,5.614,47.058,16.846,67.287c11.229,20.231,28.953,30.345,53.174,30.345
		c3.124,0,7.079-0.243,11.865-0.732v-73.242H529.08v-22.705h52.295V438.252z"/>
	<path fill="#0000FF" d="M627.195,438.398V211.055h44.385c26.66,0,44.506,2.028,53.54,6.079
		c9.031,4.054,15.795,10.034,20.288,17.944c4.49,7.91,6.738,16.944,6.738,27.1c0,8.009-1.318,15.601-3.955,22.778
		s-6.544,13.722-11.719,19.629c-5.178,5.91-12.696,11.499-22.559,16.772c18.065,7.228,30.297,16.113,36.694,26.66
		c6.395,10.547,9.595,21.094,9.595,31.641c0,10.06-2.71,19.826-8.13,29.297c-5.42,9.474-13.015,16.75-22.778,21.826
		c-9.767,5.079-25.393,7.617-46.875,7.617H627.195z M656.785,313.447h31.055c10.057-4.207,17.406-8.633,22.046-13.28
		c4.637-4.646,8.104-9.833,10.4-15.557c2.293-5.722,3.442-12.009,3.442-18.857c0-10.762-3.149-18.784-9.448-24.067
		s-18.581-7.926-36.841-7.926h-20.654V313.447z M656.785,415.693h27.979c15.623,0,27.173-3.685,34.644-11.06
		c7.471-7.372,11.206-16.234,11.206-26.587c0-7.617-2.051-14.623-6.152-21.021c-4.102-6.395-10.451-11.474-19.043-15.234
		c-8.595-3.758-22.071-5.64-40.43-5.64h-8.203V415.693z"/>
	<path d="M399.031,812.891c-27.052-1.662-49.855-9.302-68.408-22.925c-18.556-13.623-33.375-32.007-44.458-55.151
		c-11.085-23.145-16.626-46.337-16.626-69.58c0-23.24,5.541-46.436,16.626-69.58c11.083-23.145,25.902-41.528,44.458-55.151
		c18.553-13.623,41.356-21.313,68.408-23.071v22.705c-20.441,1.858-38.022,8.723-52.739,20.595
		c-14.72,11.872-26.285,26.992-34.694,45.362c-8.412,18.37-12.616,38.061-12.616,59.067c0,21.009,4.205,40.697,12.616,59.067
		c8.409,18.37,19.974,33.467,34.694,45.291c14.717,11.822,32.297,18.711,52.739,20.666V812.891z"/>
	<path d="M461.764,758.398h-31.487l64.163-85.334l-60.082-78.289h34.996l42.405,55.254l41.546-55.254h30.936l-56.726,75.785
		l67.41,87.838h-34.996l-49.695-64.753L461.764,758.398z"/>
	<path d="M624.998,517.432c27.049,1.758,49.853,9.448,68.408,23.071c18.553,13.623,33.373,32.007,44.458,55.151
		c11.082,23.145,16.626,46.34,16.626,69.58c0,23.243-5.544,46.436-16.626,69.58c-11.085,23.145-25.905,41.528-44.458,55.151
		c-18.556,13.623-41.359,21.263-68.408,22.925v-22.705c20.409-1.955,37.962-8.844,52.661-20.666
		c14.696-11.824,26.269-26.921,34.717-45.291c8.445-18.37,12.671-38.059,12.671-59.067c0-21.007-4.226-40.697-12.671-59.067
		c-8.448-18.37-20.021-33.49-34.717-45.362c-14.699-11.872-32.252-18.736-52.661-20.595V517.432z"/>
</g>
</svg>
