<svg xmlns="http://www.w3.org/2000/svg" viewBox="0 0 260 52" width="260" height="52">
<!-- Generated by Color Ramp Formulator v1.0.0 -->
<rect class="linear-gradient-container" width="260" height="52" stroke="gray" stroke-width="2" fill="white" shape-rendering="crispEdges"/>
<g class="discrete-gradient" shape-rendering="crispEdges">
<rect class="color" x="2" y="2" width="1" height="48" fill="#000000"/>
<rect class="color" x="3" y="2" width="1" height="48" fill="#010103"/>
<rect class="color" x="4" y="2" width="1" height="48" fill="#020106"/>
<rect class="color" x="5" y="2" width="1" height="48" fill="#030209"/>
<rect class="color" x="6" y="2" width="1" height="48" fill="#04030C"/>
<rect class="color" x="7" y="2" width="1" height="48" fill="#05030F"/>
<rect class="color" x="8" y="2" width="1" height="48" fill="#060412"/>
<rect class="color" x="9" y="2" width="1" height="48" fill="#070414"/>
<rect class="color" x="10" y="2" width="1" height="48" fill="#080517"/>
<rect class="color" x="11" y="2" width="1" height="48" fill="#0A061A"/>
<rect class="color" x="12" y="2" width="1" height="48" fill="#0B061D"/>
<rect class="color" x="13" y="2" width="1" height="48" fill="#0C0720"/>
<rect class="color" x="14" y="2" width="1" height="48" fill="#0E0722"/>
<rect class="color" x="15" y="2" width="1" height="48" fill="#0F0725"/>
<rect class="color" x="16" y="2" width="1" height="48" fill="#110828"/>
<rect class="color" x="17" y="2" width="1" height="48" fill="#12082A"/>
<rect class="color" x="18" y="2" width="1" height="48" fill="#14092D"/>
<rect class="color" x="19" y="2" width="1" height="48" fill="#15092F"/>
<rect class="color" x="20" y="2" width="1" height="48" fill="#170A32"/>
<rect class="color" x="21" y="2" width="1" height="48" fill="#180A35"/>
<rect class="color" x="22" y="2" width="1" height="48" fill="#1A0A37"/>
<rect class="color" x="23" y="2" width="1" height="48" fill="#1C0B39"/>
<rect class="color" x="24" y="2" width="1" height="48" fill="#1E0B3C"/>
<rect class="color" x="25" y="2" width="1" height="48" fill="#1F0B3E"/>
<rect class="color" x="26" y="2" width="1" height="48" fill="#210C41"/>
<rect class="color" x="27" y="2" width="1" height="48" fill="#230C43"/>
<rect class="color" x="28" y="2" width="1" height="48" fill="#250C45"/>
<rect class="color" x="29" y="2" width="1" height="48" fill="#270D47"/>
<rect class="color" x="30" y="2" width="1" height="48" fill="#290D4A"/>
<rect class="color" x="31" y="2" width="1" height="48" fill="#2B0D4C"/>
<rect class="color" x="32" y="2" width="1" height="48" fill="#2D0D4E"/>
<rect class="color" x="33" y="2" width="1" height="48" fill="#2F0E50"/>
<rect class="color" x="34" y="2" width="1" height="48" fill="#310E52"/>
<rect class="color" x="35" y="2" width="1" height="48" fill="#330E54"/>
<rect class="color" x="36" y="2" width="1" height="48" fill="#350E56"/>
<rect class="color" x="37" y="2" width="1" height="48" fill="#380F58"/>
<rect class="color" x="38" y="2" width="1" height="48" fill="#3A0F5A"/>
<rect class="color" x="39" y="2" width="1" height="48" fill="#3C0F5C"/>
<rect class="color" x="40" y="2" width="1" height="48" fill="#3E0F5E"/>
<rect class="color" x="41" y="2" width="1" height="48" fill="#40105F"/>
<rect class="color" x="42" y="2" width="1" height="48" fill="#431061"/>
<rect class="color" x="43" y="2" width="1" height="48" fill="#451063"/>
<rect class="color" x="44" y="2" width="1" height="48" fill="#471064"/>
<rect class="color" x="45" y="2" width="1" height="48" fill="#4A1066"/>
<rect class="color" x="46" y="2" width="1" height="48" fill="#4C1167"/>
<rect class="color" x="47" y="2" width="1" height="48" fill="#4E1169"/>
<rect class="color" x="48" y="2" width="1" height="48" fill="#51116A"/>
<rect class="color" x="49" y="2" width="1" height="48" fill="#53116C"/>
<rect class="color" x="50" y="2" width="1" height="48" fill="#55126D"/>
<rect class="color" x="51" y="2" width="1" height="48" fill="#58126F"/>
<rect class="color" x="52" y="2" width="1" height="48" fill="#5A1270"/>
<rect class="color" x="53" y="2" width="1" height="48" fill="#5D1271"/>
<rect class="color" x="54" y="2" width="1" height="48" fill="#5F1272"/>
<rect class="color" x="55" y="2" width="1" height="48" fill="#621373"/>
<rect class="color" x="56" y="2" width="1" height="48" fill="#641374"/>
<rect class="color" x="57" y="2" width="1" height="48" fill="#661376"/>
<rect class="color" x="58" y="2" width="1" height="48" fill="#691377"/>
<rect class="color" x="59" y="2" width="1" height="48" fill="#6B1478"/>
<rect class="color" x="60" y="2" width="1" height="48" fill="#6E1478"/>
<rect class="color" x="61" y="2" width="1" height="48" fill="#701479"/>
<rect class="color" x="62" y="2" width="1" height="48" fill="#73157A"/>
<rect class="color" x="63" y="2" width="1" height="48" fill="#75157B"/>
<rect class="color" x="64" y="2" width="1" height="48" fill="#78157C"/>
<rect class="color" x="65" y="2" width="1" height="48" fill="#7A157D"/>
<rect class="color" x="66" y="2" width="1" height="48" fill="#7D167D"/>
<rect class="color" x="67" y="2" width="1" height="48" fill="#7F167E"/>
<rect class="color" x="68" y="2" width="1" height="48" fill="#81167E"/>
<rect class="color" x="69" y="2" width="1" height="48" fill="#84177F"/>
<rect class="color" x="70" y="2" width="1" height="48" fill="#86177F"/>
<rect class="color" x="71" y="2" width="1" height="48" fill="#891880"/>
<rect class="color" x="72" y="2" width="1" height="48" fill="#8B1880"/>
<rect class="color" x="73" y="2" width="1" height="48" fill="#8E1881"/>
<rect class="color" x="74" y="2" width="1" height="48" fill="#901981"/>
<rect class="color" x="75" y="2" width="1" height="48" fill="#921981"/>
<rect class="color" x="76" y="2" width="1" height="48" fill="#951A82"/>
<rect class="color" x="77" y="2" width="1" height="48" fill="#971A82"/>
<rect class="color" x="78" y="2" width="1" height="48" fill="#991B82"/>
<rect class="color" x="79" y="2" width="1" height="48" fill="#9C1B82"/>
<rect class="color" x="80" y="2" width="1" height="48" fill="#9E1B82"/>
<rect class="color" x="81" y="2" width="1" height="48" fill="#A01C83"/>
<rect class="color" x="82" y="2" width="1" height="48" fill="#A31D83"/>
<rect class="color" x="83" y="2" width="1" height="48" fill="#A51D83"/>
<rect class="color" x="84" y="2" width="1" height="48" fill="#A71E83"/>
<rect class="color" x="85" y="2" width="1" height="48" fill="#A91E83"/>
<rect class="color" x="86" y="2" width="1" height="48" fill="#AC1F83"/>
<rect class="color" x="87" y="2" width="1" height="48" fill="#AE1F82"/>
<rect class="color" x="88" y="2" width="1" height="48" fill="#B02082"/>
<rect class="color" x="89" y="2" width="1" height="48" fill="#B22182"/>
<rect class="color" x="90" y="2" width="1" height="48" fill="#B42182"/>
<rect class="color" x="91" y="2" width="1" height="48" fill="#B62282"/>
<rect class="color" x="92" y="2" width="1" height="48" fill="#B92382"/>
<rect class="color" x="93" y="2" width="1" height="48" fill="#BB2381"/>
<rect class="color" x="94" y="2" width="1" height="48" fill="#BD2481"/>
<rect class="color" x="95" y="2" width="1" height="48" fill="#BF2581"/>
<rect class="color" x="96" y="2" width="1" height="48" fill="#C12580"/>
<rect class="color" x="97" y="2" width="1" height="48" fill="#C32680"/>
<rect class="color" x="98" y="2" width="1" height="48" fill="#C4277F"/>
<rect class="color" x="99" y="2" width="1" height="48" fill="#C6287F"/>
<rect class="color" x="100" y="2" width="1" height="48" fill="#C8297F"/>
<rect class="color" x="101" y="2" width="1" height="48" fill="#CA2A7E"/>
<rect class="color" x="102" y="2" width="1" height="48" fill="#CC2A7E"/>
<rect class="color" x="103" y="2" width="1" height="48" fill="#CE2B7D"/>
<rect class="color" x="104" y="2" width="1" height="48" fill="#CF2C7D"/>
<rect class="color" x="105" y="2" width="1" height="48" fill="#D12D7C"/>
<rect class="color" x="106" y="2" width="1" height="48" fill="#D32E7C"/>
<rect class="color" x="107" y="2" width="1" height="48" fill="#D52F7B"/>
<rect class="color" x="108" y="2" width="1" height="48" fill="#D6307A"/>
<rect class="color" x="109" y="2" width="1" height="48" fill="#D8317A"/>
<rect class="color" x="110" y="2" width="1" height="48" fill="#D93279"/>
<rect class="color" x="111" y="2" width="1" height="48" fill="#DB3379"/>
<rect class="color" x="112" y="2" width="1" height="48" fill="#DC3478"/>
<rect class="color" x="113" y="2" width="1" height="48" fill="#DE3577"/>
<rect class="color" x="114" y="2" width="1" height="48" fill="#DF3677"/>
<rect class="color" x="115" y="2" width="1" height="48" fill="#E13776"/>
<rect class="color" x="116" y="2" width="1" height="48" fill="#E23875"/>
<rect class="color" x="117" y="2" width="1" height="48" fill="#E33A75"/>
<rect class="color" x="118" y="2" width="1" height="48" fill="#E53B74"/>
<rect class="color" x="119" y="2" width="1" height="48" fill="#E63C73"/>
<rect class="color" x="120" y="2" width="1" height="48" fill="#E73D72"/>
<rect class="color" x="121" y="2" width="1" height="48" fill="#E83E72"/>
<rect class="color" x="122" y="2" width="1" height="48" fill="#EA4071"/>
<rect class="color" x="123" y="2" width="1" height="48" fill="#EB4170"/>
<rect class="color" x="124" y="2" width="1" height="48" fill="#EC4270"/>
<rect class="color" x="125" y="2" width="1" height="48" fill="#ED436F"/>
<rect class="color" x="126" y="2" width="1" height="48" fill="#EE456E"/>
<rect class="color" x="127" y="2" width="1" height="48" fill="#EF466E"/>
<rect class="color" x="128" y="2" width="1" height="48" fill="#F0476D"/>
<rect class="color" x="129" y="2" width="1" height="48" fill="#F1496C"/>
<rect class="color" x="130" y="2" width="1" height="48" fill="#F24A6B"/>
<rect class="color" x="131" y="2" width="1" height="48" fill="#F34B6B"/>
<rect class="color" x="132" y="2" width="1" height="48" fill="#F34D6A"/>
<rect class="color" x="133" y="2" width="1" height="48" fill="#F44E69"/>
<rect class="color" x="134" y="2" width="1" height="48" fill="#F55069"/>
<rect class="color" x="135" y="2" width="1" height="48" fill="#F65168"/>
<rect class="color" x="136" y="2" width="1" height="48" fill="#F65368"/>
<rect class="color" x="137" y="2" width="1" height="48" fill="#F75467"/>
<rect class="color" x="138" y="2" width="1" height="48" fill="#F85666"/>
<rect class="color" x="139" y="2" width="1" height="48" fill="#F85766"/>
<rect class="color" x="140" y="2" width="1" height="48" fill="#F95965"/>
<rect class="color" x="141" y="2" width="1" height="48" fill="#F95A65"/>
<rect class="color" x="142" y="2" width="1" height="48" fill="#FA5C64"/>
<rect class="color" x="143" y="2" width="1" height="48" fill="#FA5D64"/>
<rect class="color" x="144" y="2" width="1" height="48" fill="#FA5F63"/>
<rect class="color" x="145" y="2" width="1" height="48" fill="#FB6063"/>
<rect class="color" x="146" y="2" width="1" height="48" fill="#FB6262"/>
<rect class="color" x="147" y="2" width="1" height="48" fill="#FC6462"/>
<rect class="color" x="148" y="2" width="1" height="48" fill="#FC6561"/>
<rect class="color" x="149" y="2" width="1" height="48" fill="#FC6761"/>
<rect class="color" x="150" y="2" width="1" height="48" fill="#FC6960"/>
<rect class="color" x="151" y="2" width="1" height="48" fill="#FC6A60"/>
<rect class="color" x="152" y="2" width="1" height="48" fill="#FD6C60"/>
<rect class="color" x="153" y="2" width="1" height="48" fill="#FD6E5F"/>
<rect class="color" x="154" y="2" width="1" height="48" fill="#FD6F5F"/>
<rect class="color" x="155" y="2" width="1" height="48" fill="#FD715F"/>
<rect class="color" x="156" y="2" width="1" height="48" fill="#FD735F"/>
<rect class="color" x="157" y="2" width="1" height="48" fill="#FD745E"/>
<rect class="color" x="158" y="2" width="1" height="48" fill="#FD765E"/>
<rect class="color" x="159" y="2" width="1" height="48" fill="#FD785E"/>
<rect class="color" x="160" y="2" width="1" height="48" fill="#FD7A5E"/>
<rect class="color" x="161" y="2" width="1" height="48" fill="#FD7B5E"/>
<rect class="color" x="162" y="2" width="1" height="48" fill="#FD7D5E"/>
<rect class="color" x="163" y="2" width="1" height="48" fill="#FD7F5E"/>
<rect class="color" x="164" y="2" width="1" height="48" fill="#FD815E"/>
<rect class="color" x="165" y="2" width="1" height="48" fill="#FC825E"/>
<rect class="color" x="166" y="2" width="1" height="48" fill="#FC845E"/>
<rect class="color" x="167" y="2" width="1" height="48" fill="#FC865E"/>
<rect class="color" x="168" y="2" width="1" height="48" fill="#FC885E"/>
<rect class="color" x="169" y="2" width="1" height="48" fill="#FC8A5E"/>
<rect class="color" x="170" y="2" width="1" height="48" fill="#FB8B5F"/>
<rect class="color" x="171" y="2" width="1" height="48" fill="#FB8D5F"/>
<rect class="color" x="172" y="2" width="1" height="48" fill="#FB8F5F"/>
<rect class="color" x="173" y="2" width="1" height="48" fill="#FA9160"/>
<rect class="color" x="174" y="2" width="1" height="48" fill="#FA9260"/>
<rect class="color" x="175" y="2" width="1" height="48" fill="#FA9460"/>
<rect class="color" x="176" y="2" width="1" height="48" fill="#F99661"/>
<rect class="color" x="177" y="2" width="1" height="48" fill="#F99861"/>
<rect class="color" x="178" y="2" width="1" height="48" fill="#F99A62"/>
<rect class="color" x="179" y="2" width="1" height="48" fill="#F89B62"/>
<rect class="color" x="180" y="2" width="1" height="48" fill="#F89D63"/>
<rect class="color" x="181" y="2" width="1" height="48" fill="#F79F64"/>
<rect class="color" x="182" y="2" width="1" height="48" fill="#F7A164"/>
<rect class="color" x="183" y="2" width="1" height="48" fill="#F7A365"/>
<rect class="color" x="184" y="2" width="1" height="48" fill="#F6A466"/>
<rect class="color" x="185" y="2" width="1" height="48" fill="#F6A667"/>
<rect class="color" x="186" y="2" width="1" height="48" fill="#F5A867"/>
<rect class="color" x="187" y="2" width="1" height="48" fill="#F5AA68"/>
<rect class="color" x="188" y="2" width="1" height="48" fill="#F4AB69"/>
<rect class="color" x="189" y="2" width="1" height="48" fill="#F4AD6A"/>
<rect class="color" x="190" y="2" width="1" height="48" fill="#F3AF6B"/>
<rect class="color" x="191" y="2" width="1" height="48" fill="#F3B16C"/>
<rect class="color" x="192" y="2" width="1" height="48" fill="#F2B26D"/>
<rect class="color" x="193" y="2" width="1" height="48" fill="#F2B46F"/>
<rect class="color" x="194" y="2" width="1" height="48" fill="#F1B670"/>
<rect class="color" x="195" y="2" width="1" height="48" fill="#F1B871"/>
<rect class="color" x="196" y="2" width="1" height="48" fill="#F1B972"/>
<rect class="color" x="197" y="2" width="1" height="48" fill="#F0BB74"/>
<rect class="color" x="198" y="2" width="1" height="48" fill="#F0BD75"/>
<rect class="color" x="199" y="2" width="1" height="48" fill="#EFBE76"/>
<rect class="color" x="200" y="2" width="1" height="48" fill="#EFC078"/>
<rect class="color" x="201" y="2" width="1" height="48" fill="#EEC179"/>
<rect class="color" x="202" y="2" width="1" height="48" fill="#EEC37B"/>
<rect class="color" x="203" y="2" width="1" height="48" fill="#EEC57C"/>
<rect class="color" x="204" y="2" width="1" height="48" fill="#EDC67E"/>
<rect class="color" x="205" y="2" width="1" height="48" fill="#EDC87F"/>
<rect class="color" x="206" y="2" width="1" height="48" fill="#ECC981"/>
<rect class="color" x="207" y="2" width="1" height="48" fill="#ECCB83"/>
<rect class="color" x="208" y="2" width="1" height="48" fill="#ECCD85"/>
<rect class="color" x="209" y="2" width="1" height="48" fill="#EBCE86"/>
<rect class="color" x="210" y="2" width="1" height="48" fill="#EBD088"/>
<rect class="color" x="211" y="2" width="1" height="48" fill="#EBD18A"/>
<rect class="color" x="212" y="2" width="1" height="48" fill="#EBD38C"/>
<rect class="color" x="213" y="2" width="1" height="48" fill="#EAD48E"/>
<rect class="color" x="214" y="2" width="1" height="48" fill="#EAD590"/>
<rect class="color" x="215" y="2" width="1" height="48" fill="#EAD792"/>
<rect class="color" x="216" y="2" width="1" height="48" fill="#EAD894"/>
<rect class="color" x="217" y="2" width="1" height="48" fill="#E9DA96"/>
<rect class="color" x="218" y="2" width="1" height="48" fill="#E9DB98"/>
<rect class="color" x="219" y="2" width="1" height="48" fill="#E9DC9A"/>
<rect class="color" x="220" y="2" width="1" height="48" fill="#E9DE9D"/>
<rect class="color" x="221" y="2" width="1" height="48" fill="#E9DF9F"/>
<rect class="color" x="222" y="2" width="1" height="48" fill="#E9E0A1"/>
<rect class="color" x="223" y="2" width="1" height="48" fill="#E9E2A3"/>
<rect class="color" x="224" y="2" width="1" height="48" fill="#E9E3A6"/>
<rect class="color" x="225" y="2" width="1" height="48" fill="#E9E4A8"/>
<rect class="color" x="226" y="2" width="1" height="48" fill="#E9E5AB"/>
<rect class="color" x="227" y="2" width="1" height="48" fill="#E9E6AD"/>
<rect class="color" x="228" y="2" width="1" height="48" fill="#E9E8AF"/>
<rect class="color" x="229" y="2" width="1" height="48" fill="#EAE9B2"/>
<rect class="color" x="230" y="2" width="1" height="48" fill="#EAEAB4"/>
<rect class="color" x="231" y="2" width="1" height="48" fill="#EAEBB7"/>
<rect class="color" x="232" y="2" width="1" height="48" fill="#EAECBA"/>
<rect class="color" x="233" y="2" width="1" height="48" fill="#EBEDBC"/>
<rect class="color" x="234" y="2" width="1" height="48" fill="#EBEEBF"/>
<rect class="color" x="235" y="2" width="1" height="48" fill="#EBEFC1"/>
<rect class="color" x="236" y="2" width="1" height="48" fill="#ECF0C4"/>
<rect class="color" x="237" y="2" width="1" height="48" fill="#ECF1C7"/>
<rect class="color" x="238" y="2" width="1" height="48" fill="#EDF2C9"/>
<rect class="color" x="239" y="2" width="1" height="48" fill="#EDF3CC"/>
<rect class="color" x="240" y="2" width="1" height="48" fill="#EEF4CF"/>
<rect class="color" x="241" y="2" width="1" height="48" fill="#EFF5D2"/>
<rect class="color" x="242" y="2" width="1" height="48" fill="#EFF6D4"/>
<rect class="color" x="243" y="2" width="1" height="48" fill="#F0F6D7"/>
<rect class="color" x="244" y="2" width="1" height="48" fill="#F1F7DA"/>
<rect class="color" x="245" y="2" width="1" height="48" fill="#F2F8DD"/>
<rect class="color" x="246" y="2" width="1" height="48" fill="#F2F9E0"/>
<rect class="color" x="247" y="2" width="1" height="48" fill="#F3F9E2"/>
<rect class="color" x="248" y="2" width="1" height="48" fill="#F4FAE5"/>
<rect class="color" x="249" y="2" width="1" height="48" fill="#F5FBE8"/>
<rect class="color" x="250" y="2" width="1" height="48" fill="#F6FBEB"/>
<rect class="color" x="251" y="2" width="1" height="48" fill="#F7FCEE"/>
<rect class="color" x="252" y="2" width="1" height="48" fill="#F9FCF1"/>
<rect class="color" x="253" y="2" width="1" height="48" fill="#FAFDF3"/>
<rect class="color" x="254" y="2" width="1" height="48" fill="#FBFEF6"/>
<rect class="color" x="255" y="2" width="1" height="48" fill="#FCFEF9"/>
<rect class="color" x="256" y="2" width="1" height="48" fill="#FEFFFC"/>
<rect class="color" x="257" y="2" width="1" height="48" fill="#FFFFFF"/>
</g>
</svg>